<svg version="1.1" id="Layer_1" xmlns="http://www.w3.org/2000/svg" xmlns:xlink="http://www.w3.org/1999/xlink" x="0px" y="0px"
	 width="100%" viewBox="0 0 1024 1024" enable-background="new 0 0 1024 1024" xml:space="preserve">
<path fill="#FFFFFF" opacity="1.000000" stroke="none" 
	d="
M478.000000,1025.000000 
	C318.666656,1025.000000 159.833328,1025.000000 1.000000,1025.000000 
	C1.000000,683.666687 1.000000,342.333344 1.000000,1.000000 
	C342.333344,1.000000 683.666687,1.000000 1025.000000,1.000000 
	C1025.000000,342.333344 1025.000000,683.666687 1025.000000,1025.000000 
	C842.833313,1025.000000 660.666687,1025.000000 478.000000,1025.000000 
M922.704407,479.446472 
	C921.802551,478.965302 920.900757,478.484100 919.563904,477.490356 
	C855.700745,435.475433 791.837524,393.460541 727.148132,350.902069 
	C727.148132,353.234863 727.148499,354.346161 727.148071,355.457489 
	C727.139160,376.620575 727.218689,397.784454 727.036377,418.946045 
	C727.005066,422.583954 728.288086,424.597351 731.258057,426.539490 
	C776.234192,455.951263 821.133911,485.479767 866.044189,514.992188 
	C867.197937,515.750366 868.268311,516.635376 869.668274,517.677734 
	C867.902710,518.918030 866.581665,519.909424 865.199951,520.807434 
	C820.562866,549.817078 775.936707,578.843628 731.239990,607.761169 
	C728.284302,609.673462 726.989746,611.648193 727.029968,615.307678 
	C727.244080,634.802185 727.145325,654.300049 727.175110,673.796753 
	C727.177795,675.549561 727.324280,677.302063 727.441223,679.873413 
	C729.740295,678.513428 731.430664,677.586548 733.047974,676.546204 
	C796.164429,635.944641 859.276245,595.335938 922.367432,554.695190 
	C923.419617,554.017456 924.209717,552.932922 925.553467,551.334106 
	C925.593994,529.251892 925.693359,507.169342 925.560181,485.088226 
	C925.549805,483.372803 923.908997,481.667206 923.011536,480.006073 
	C923.011536,480.006073 923.046692,479.968018 922.704407,479.446472 
M662.286682,678.714233 
	C662.286682,678.714233 662.547668,678.889832 663.124390,679.397888 
	C676.710144,679.397888 690.295837,679.397888 704.112549,679.397888 
	C704.112549,570.746826 704.112549,462.342896 704.112549,353.983612 
	C682.803345,353.983612 661.777710,353.983612 640.576721,353.983612 
	C640.576721,381.237457 640.573181,408.066620 640.577576,434.895782 
	C640.584167,475.393097 640.614563,515.890503 640.537109,556.387634 
	C640.534119,557.956116 639.518799,559.522644 638.816711,560.428467 
	C584.604187,491.109741 530.391602,421.791016 475.698090,351.857239 
	C462.664917,388.799896 449.986877,424.667236 437.405792,460.568604 
	C436.653442,462.715576 436.384766,465.134003 436.381653,467.426788 
	C436.287659,536.398438 436.296234,605.370239 436.123047,674.341553 
	C436.111389,678.987122 437.973663,679.966431 442.048218,679.905457 
	C453.541046,679.733459 465.037933,679.827515 476.533203,679.819946 
	C482.318146,679.816101 488.103119,679.819214 494.261108,679.819214 
	C494.261108,608.929688 494.261108,538.602051 494.261108,466.831635 
	C498.524384,472.089783 501.998688,476.243805 505.331970,480.508057 
	C522.543823,502.527313 539.649536,524.629944 556.929138,546.595825 
	C572.159302,565.956421 587.510010,585.223145 602.915894,604.444458 
	C621.539978,627.681030 640.278198,650.826050 659.118164,674.619141 
	C660.127930,675.890198 661.137634,677.161194 662.286682,678.714233 
M192.501068,420.995361 
	C163.304977,440.174469 134.120468,459.371246 104.893066,478.502502 
	C102.269707,480.219666 100.514854,481.784119 100.563873,485.489349 
	C100.843719,506.643219 100.681862,527.802917 100.959167,548.956848 
	C100.985565,550.970398 102.495369,553.730164 104.177238,554.845337 
	C159.904297,591.796936 215.735413,628.591492 271.558502,665.398132 
	C273.142029,666.442261 274.804657,667.366455 276.840393,668.593750 
	C283.698700,648.839172 290.329315,629.740295 297.083862,610.284485 
	C250.111572,579.369263 203.411758,548.633301 156.311600,517.633911 
	C157.771713,516.663635 158.457245,516.204346 159.146454,515.750671 
	C200.002716,488.858917 240.863678,461.974365 281.710846,435.068848 
	C287.522339,431.240875 295.508575,428.513306 298.414581,423.092560 
	C301.341522,417.632812 299.239716,409.450256 299.252625,402.460571 
	C299.283630,385.684265 299.262634,368.907898 299.262634,350.815826 
	C263.294037,374.475403 228.209229,397.553680 192.501068,420.995361 
M384.771179,403.229797 
	C383.451324,407.173187 382.161194,411.126801 380.807007,415.058380 
	C365.739258,458.803772 350.641510,502.538849 335.592041,546.290527 
	C318.650513,595.542786 301.749176,644.808838 284.834259,694.070251 
	C283.945374,696.659058 283.092682,699.260254 282.025360,702.445984 
	C284.449493,702.576660 286.068878,702.737183 287.688538,702.739685 
	C301.014679,702.760376 314.340881,702.760193 327.667053,702.748901 
	C335.969513,702.741821 335.960297,702.724976 338.622803,695.132690 
	C354.703278,649.278442 370.985291,603.493713 386.824829,557.556458 
	C409.661011,491.327667 432.184631,424.991089 454.819733,358.693024 
	C457.545624,350.708893 460.135406,342.678284 462.960052,334.150757 
	C460.580017,334.026398 458.949371,333.869019 457.318542,333.867279 
	C442.659729,333.851715 427.999176,333.986206 413.343231,333.783844 
	C409.521301,333.731079 407.848267,335.005737 406.641876,338.651978 
	C399.585754,359.978729 392.248352,381.212433 384.771179,403.229797 
z"/>
<path fill="#101318" opacity="1.000000" stroke="none" 
	d="
M658.966980,674.010742 
	C640.278198,650.826050 621.539978,627.681030 602.915894,604.444458 
	C587.510010,585.223145 572.159302,565.956421 556.929138,546.595825 
	C539.649536,524.629944 522.543823,502.527313 505.331970,480.508057 
	C501.998688,476.243805 498.524384,472.089783 494.261108,466.831635 
	C494.261108,538.602051 494.261108,608.929688 494.261108,679.819214 
	C488.103119,679.819214 482.318146,679.816101 476.533203,679.819946 
	C465.037933,679.827515 453.541046,679.733459 442.048218,679.905457 
	C437.973663,679.966431 436.111389,678.987122 436.123047,674.341553 
	C436.296234,605.370239 436.287659,536.398438 436.381653,467.426788 
	C436.384766,465.134003 436.653442,462.715576 437.405792,460.568604 
	C449.986877,424.667236 462.664917,388.799896 475.698090,351.857239 
	C530.391602,421.791016 584.604187,491.109741 638.977661,561.086060 
	C640.040466,561.462463 641.612183,561.338867 641.722229,560.871338 
	C642.095337,559.285828 641.997986,557.578674 641.998169,555.917969 
	C642.006104,490.789215 642.046326,425.660400 641.911682,360.531921 
	C641.902771,356.198486 642.934448,354.819336 647.436829,354.896362 
	C663.589294,355.172638 679.749451,355.002441 695.906677,355.001495 
	C702.994324,355.001068 702.997070,355.001556 702.997131,361.866821 
	C702.997864,426.329285 702.997437,490.791748 702.997559,555.254211 
	C702.997620,594.398071 702.943726,633.542175 703.079834,672.685547 
	C703.093872,676.722229 702.137634,678.228210 697.849243,678.095520 
	C688.031006,677.791687 678.196594,677.950989 668.369751,678.038086 
	C666.426697,678.055359 664.488220,678.592407 662.547668,678.889771 
	C662.547668,678.889832 662.286682,678.714233 662.439331,678.220581 
	C663.416260,674.505371 661.430176,674.025330 658.966980,674.010742 
z"/>
<path fill="#111318" opacity="1.000000" stroke="none" 
	d="
M925.122192,552.038208 
	C924.209717,552.932922 923.419617,554.017456 922.367432,554.695190 
	C859.276245,595.335938 796.164429,635.944641 733.047974,676.546204 
	C731.430664,677.586548 729.740295,678.513428 727.441223,679.873413 
	C727.324280,677.302063 727.177795,675.549561 727.175110,673.796753 
	C727.145325,654.300049 727.244080,634.802185 727.029968,615.307678 
	C726.989746,611.648193 728.284302,609.673462 731.239990,607.761169 
	C775.936707,578.843628 820.562866,549.817078 865.199951,520.807434 
	C866.581665,519.909424 867.902710,518.918030 869.668274,517.677734 
	C868.268311,516.635376 867.197937,515.750366 866.044189,514.992188 
	C821.133911,485.479767 776.234192,455.951263 731.258057,426.539490 
	C728.288086,424.597351 727.005066,422.583954 727.036377,418.946045 
	C727.218689,397.784454 727.139160,376.620575 727.148071,355.457489 
	C727.148499,354.346161 727.148132,353.234863 727.148132,350.902069 
	C791.837524,393.460541 855.700745,435.475433 919.841431,478.090088 
	C921.094849,479.115875 922.070801,479.541962 923.046692,479.968018 
	C923.046692,479.968018 923.011536,480.006073 923.071899,480.399597 
	C923.438660,483.070038 924.002869,485.346039 924.010986,487.624054 
	C924.080566,507.216248 924.020569,526.808899 924.095642,546.401001 
	C924.102844,548.281372 924.764404,550.159180 925.122192,552.038208 
z"/>
<path fill="#111318" opacity="1.000000" stroke="none" 
	d="
M192.812744,420.813660 
	C228.209229,397.553680 263.294037,374.475403 299.262634,350.815826 
	C299.262634,368.907898 299.283630,385.684265 299.252625,402.460571 
	C299.239716,409.450256 301.341522,417.632812 298.414581,423.092560 
	C295.508575,428.513306 287.522339,431.240875 281.710846,435.068848 
	C240.863678,461.974365 200.002716,488.858917 159.146454,515.750671 
	C158.457245,516.204346 157.771713,516.663635 156.311600,517.633911 
	C203.411758,548.633301 250.111572,579.369263 297.083862,610.284485 
	C290.329315,629.740295 283.698700,648.839172 276.840393,668.593750 
	C274.804657,667.366455 273.142029,666.442261 271.558502,665.398132 
	C215.735413,628.591492 159.904297,591.796936 104.177238,554.845337 
	C102.495369,553.730164 100.985565,550.970398 100.959167,548.956848 
	C100.681862,527.802917 100.843719,506.643219 100.563873,485.489349 
	C100.514854,481.784119 102.269707,480.219666 104.893066,478.502502 
	C134.120468,459.371246 163.304977,440.174469 192.812744,420.813660 
z"/>
<path fill="#16D3F7" opacity="1.000000" stroke="none" 
	d="
M384.888550,402.853638 
	C392.248352,381.212433 399.585754,359.978729 406.641876,338.651978 
	C407.848267,335.005737 409.521301,333.731079 413.343231,333.783844 
	C427.999176,333.986206 442.659729,333.851715 457.318542,333.867279 
	C458.949371,333.869019 460.580017,334.026398 462.960052,334.150757 
	C460.135406,342.678284 457.545624,350.708893 454.819733,358.693024 
	C432.184631,424.991089 409.661011,491.327667 386.824829,557.556458 
	C370.985291,603.493713 354.703278,649.278442 338.622803,695.132690 
	C335.960297,702.724976 335.969513,702.741821 327.667053,702.748901 
	C314.340881,702.760193 301.014679,702.760376 287.688538,702.739685 
	C286.068878,702.737183 284.449493,702.576660 282.025360,702.445984 
	C283.092682,699.260254 283.945374,696.659058 284.834259,694.070251 
	C301.749176,644.808838 318.650513,595.542786 335.592041,546.290527 
	C350.641510,502.538849 365.739258,458.803772 380.807007,415.058380 
	C382.161194,411.126801 383.451324,407.173187 384.888550,402.853638 
z"/>
<path fill="#090A0E" opacity="1.000000" stroke="none" 
	d="
M662.836060,679.143799 
	C664.488220,678.592407 666.426697,678.055359 668.369751,678.038086 
	C678.196594,677.950989 688.031006,677.791687 697.849243,678.095520 
	C702.137634,678.228210 703.093872,676.722229 703.079834,672.685547 
	C702.943726,633.542175 702.997620,594.398071 702.997559,555.254211 
	C702.997437,490.791748 702.997864,426.329285 702.997131,361.866821 
	C702.997070,355.001556 702.994324,355.001068 695.906677,355.001495 
	C679.749451,355.002441 663.589294,355.172638 647.436829,354.896362 
	C642.934448,354.819336 641.902771,356.198486 641.911682,360.531921 
	C642.046326,425.660400 642.006104,490.789215 641.998169,555.917969 
	C641.997986,557.578674 642.095337,559.285828 641.722229,560.871338 
	C641.612183,561.338867 640.040466,561.462463 639.056885,561.416870 
	C639.518799,559.522644 640.534119,557.956116 640.537109,556.387634 
	C640.614563,515.890503 640.584167,475.393097 640.577576,434.895782 
	C640.573181,408.066620 640.576721,381.237457 640.576721,353.983612 
	C661.777710,353.983612 682.803345,353.983612 704.112549,353.983612 
	C704.112549,462.342896 704.112549,570.746826 704.112549,679.397888 
	C690.295837,679.397888 676.710144,679.397888 662.836060,679.143799 
z"/>
<path fill="#252529" opacity="1.000000" stroke="none" 
	d="
M925.337769,551.686157 
	C924.764404,550.159180 924.102844,548.281372 924.095642,546.401001 
	C924.020569,526.808899 924.080566,507.216248 924.010986,487.624054 
	C924.002869,485.346039 923.438660,483.070038 923.079163,480.375061 
	C923.908997,481.667206 925.549805,483.372803 925.560181,485.088226 
	C925.693359,507.169342 925.593994,529.251892 925.337769,551.686157 
z"/>
<path fill="#090A0E" opacity="1.000000" stroke="none" 
	d="
M659.042603,674.314941 
	C661.430176,674.025330 663.416260,674.505371 662.369629,678.079590 
	C661.137634,677.161194 660.127930,675.890198 659.042603,674.314941 
z"/>
<path fill="#252529" opacity="1.000000" stroke="none" 
	d="
M922.875549,479.707245 
	C922.070801,479.541962 921.094849,479.115875 920.058960,478.346375 
	C920.900757,478.484100 921.802551,478.965302 922.875549,479.707245 
z"/>
</svg>