<?xml version="1.0" encoding="UTF-8"?>
<svg version="1.1" xmlns="http://www.w3.org/2000/svg" width="1024" height="1024">
<path d="M0 0 C337.92 0 675.84 0 1024 0 C1024 337.92 1024 675.84 1024 1024 C686.08 1024 348.16 1024 0 1024 C0 686.08 0 348.16 0 0 Z " fill="#FEFEFE" transform="translate(0,0)"/>
<path d="M0 0 C3.29861604 1.3998197 5.03681191 2.94892415 7.20703125 5.78125 C7.7901709 6.53599609 8.37331055 7.29074219 8.97412109 8.06835938 C9.58078613 8.87080078 10.18745117 9.67324219 10.8125 10.5 C11.75343506 11.72686523 11.75343506 11.72686523 12.71337891 12.97851562 C16.42177433 17.83812514 20.00133108 22.76583128 23.45703125 27.80859375 C27.45712746 33.48974305 31.98697744 38.77631531 36.41015625 44.12890625 C37.32655884 45.23866821 37.32655884 45.23866821 38.26147461 46.37084961 C39.47242959 47.8356403 40.68537397 49.29878941 41.90063477 50.76000977 C45.24076942 54.79312232 48.45898288 58.88812271 51.57958984 63.09326172 C53.75650449 66.01552081 55.99861268 68.88493882 58.25 71.75 C58.71889648 72.34852783 59.18779297 72.94705566 59.67089844 73.5637207 C62.78173799 77.51390196 65.98691382 81.36232733 69.25 85.1875 C73.08186157 89.73367384 76.26111456 94.42256454 79.36328125 99.484375 C81.37350327 102.57407184 83.66897681 105.22384206 86.14453125 107.9453125 C93.13085605 115.68174796 99.39805624 124.06221299 105.7668457 132.30517578 C109.17485191 136.70156364 112.64732378 141.01189112 116.25 145.25 C120.21883076 149.94634148 123.79115912 154.82303212 127.31689453 159.8515625 C131.27314917 165.46468351 135.59990835 170.72956055 140 176 C147.21496486 184.83159599 154.11134967 193.91314944 161 203 C161.55389404 203.69625488 162.10778809 204.39250977 162.6784668 205.10986328 C164 207 164 207 164 209 C164.66 209 165.32 209 166 209 C166 140.36 166 71.72 166 1 C186.79 1 207.58 1 229 1 C229 108.58 229 216.16 229 327 C215.47 327 201.94 327 188 327 C179 316 179 316 174.5625 310.5625 C172.27280045 307.75781612 169.97190486 304.96680508 167.6328125 302.203125 C162.85794844 296.55871701 158.32883527 290.82013896 153.9375 284.875 C150.62834683 280.39643505 147.29984992 276.08157478 143.5 272 C136.95322492 264.95510073 131.44847193 257.05970177 125.76513672 249.31787109 C121.037806 242.88765215 116.12845823 236.69653922 110.94067383 230.63720703 C107.84298589 227.01591271 104.87908358 223.3267664 101.984375 219.54296875 C99.87543162 216.84036611 97.71303865 214.1873057 95.54125977 211.53515625 C86.5950726 200.60835534 77.89554406 189.49446796 69.6875 178 C67.37525483 174.78588326 64.98688151 171.79351592 62.3125 168.875 C57.25639025 163.33310716 52.83007179 157.32184285 48.3046875 151.34765625 C45.34975937 147.44752885 42.34562378 143.58949348 39.3125 139.75 C34.89124402 134.14909957 30.52860243 128.50606544 26.19140625 122.83984375 C24.15707609 120.20355493 22.08019867 117.60024834 20 115 C19.67 184.96 19.34 254.92 19 327 C0.19 327 -18.62 327 -38 327 C-40.02265521 324.97734479 -39.21322044 320.82752689 -39.24810791 318.0496521 C-39.26949817 316.78350868 -39.26949817 316.78350868 -39.29132056 315.4917866 C-39.33776841 312.63829741 -39.37657233 309.7847596 -39.41503906 306.93115234 C-39.44584646 304.89218902 -39.47682589 302.8532283 -39.50796509 300.81427002 C-39.78498371 281.9701215 -39.94109712 263.12452878 -40.06656265 244.27882957 C-40.15266587 231.64435858 -40.27403966 219.0123983 -40.48828125 206.37939453 C-42.23928561 100.98594175 -42.23928561 100.98594175 -22.28631592 59.83929443 C-19.00807081 53.05648901 -16.66682637 45.99854928 -14.27734375 38.8671875 C-13.53466347 36.78797051 -12.78574864 34.71096512 -12.02929688 32.63671875 C-11.68503662 31.68845215 -11.34077637 30.74018555 -10.98608398 29.76318359 C-10.64005127 28.81008301 -10.29401855 27.85698242 -9.9375 26.875 C-9.17350028 24.75923294 -8.40983186 22.64334622 -7.64648438 20.52734375 C-6.91956224 18.51551968 -6.19236275 16.50379581 -5.46484375 14.4921875 C-5.14104233 13.59684296 -4.81724091 12.70149841 -4.48362732 11.77902222 C-3.04849841 7.8267905 -1.59836004 3.89005668 0 0 Z " fill="#101217" transform="translate(474,352)"/>
<path d="M0 0 C3.85439542 1.23617326 6.88456383 2.37909261 10.125 4.8125 C14.80756825 8.19245043 19.58703241 11.369461 24.4375 14.5 C39.16758768 24.03181407 53.81451185 33.69018966 68.47039795 43.33551025 C71.05045063 45.03319674 73.63089169 46.73029148 76.21142578 48.42724609 C81.66287187 52.01234549 87.11313797 55.59923365 92.5625 59.1875 C93.47769409 59.79010651 94.39288818 60.39271301 95.33581543 61.01358032 C105.76862217 67.88545947 116.18596827 74.77966897 126.57421875 81.71875 C127.5178981 82.34896561 128.46157745 82.97918121 129.43385315 83.62849426 C133.92410467 86.62823123 138.41212398 89.63123187 142.89672852 92.6394043 C151.05530615 98.10292945 159.24491732 103.48986649 167.6050415 108.64128113 C172.65146456 111.75227706 177.59124789 115.00889183 182.50164795 118.32991028 C183.06442444 118.70959457 183.62720093 119.08927887 184.20703125 119.48046875 C184.78666626 119.8887793 185.36630127 120.29708984 185.96350098 120.71777344 C188.05351953 122.10107668 188.05351953 122.10107668 190.71911621 123.21191406 C194.02380004 124.84453994 196.40546885 126.36637525 199 129 C200.71620362 134.31929137 200.67341182 139.55403823 200.63671875 145.08203125 C200.65685919 146.66236147 200.67951035 148.24266148 200.70454407 149.82292175 C200.74323368 153.12983518 200.73983154 156.43351412 200.70874023 159.74047852 C200.68097704 163.12034219 200.71558804 166.48979583 200.8112793 169.8684082 C201.57046088 196.83536883 201.57046088 196.83536883 197.49441528 203.43933105 C193.87700279 207.03967943 189.75858775 208.82430619 184.94369507 210.34176636 C182.30023333 211.23697645 180.20794656 212.64915079 177.94140625 214.2578125 C177.21953125 214.72960937 176.49765625 215.20140625 175.75390625 215.6875 C175.03074219 216.161875 174.30757812 216.63625 173.5625 217.125 C165.90254376 222.12692726 158.21031187 227.07607342 150.5 232 C142.1722066 237.31953507 133.86850386 242.67330963 125.59106445 248.07080078 C118.9801473 252.37604431 112.33689909 256.62948906 105.6875 260.875 C97.5971184 266.04138532 89.53285852 271.24462559 81.5 276.5 C72.34359593 282.4902005 63.14229695 288.40718225 53.9206543 294.29638672 C47.38023978 298.47377644 40.8556765 302.67410837 34.34741211 306.90136719 C27.36775396 311.4264055 20.34057588 315.87681939 13.30786133 320.31884766 C12.41607178 320.88394043 11.52428223 321.4490332 10.60546875 322.03125 C9.81293701 322.53205078 9.02040527 323.03285156 8.20385742 323.54882812 C5.96519338 324.98099715 5.96519338 324.98099715 3.8371582 326.68554688 C2 328 2 328 0 328 C-0.51303141 319.1170796 -0.90211642 310.23934049 -1.13986778 301.34477043 C-1.25408911 297.21227321 -1.40834163 293.08998857 -1.65966797 288.96337891 C-3.23793466 262.36589947 -3.23793466 262.36589947 2.10748291 255.15835571 C7.2440845 250.55702872 12.99082535 247.70999443 19.34442139 245.14280701 C23.10950029 243.52253543 26.31194491 241.32174412 29.625 238.9375 C30.81523139 238.13304179 32.00767048 237.33183202 33.203125 236.53515625 C33.81091797 236.12797363 34.41871094 235.72079102 35.04492188 235.30126953 C46.30854122 227.80438003 57.72124421 220.5308663 69.125 213.25 C81.0237277 205.65080487 92.84516964 197.93726627 104.65039062 190.19384766 C108.15353419 187.89779864 111.66248057 185.61069767 115.171875 183.32421875 C116.94025586 182.1712246 118.70855808 181.01810995 120.47683716 179.86495972 C122.13815953 178.78215866 123.80038934 177.70075026 125.46264648 176.61938477 C130.72556747 173.18515884 135.92362515 169.70496382 141 166 C137.91600632 162.67917053 134.63567038 160.28962418 130.83984375 157.82421875 C130.23065598 157.42646744 129.6214682 157.02871613 128.99382019 156.61891174 C126.97789907 155.30400313 124.95768653 153.99584391 122.9375 152.6875 C121.50925622 151.757368 120.08136577 150.82669326 118.65380859 149.89550781 C115.64356448 147.93231057 112.63197249 145.97120448 109.61962891 144.01123047 C102.84650658 139.60054692 96.09663611 135.1545172 89.34509277 130.71090698 C78.63730895 123.66477074 67.91995111 116.63350897 57.1875 109.625 C46.02618998 102.33599969 34.88640942 95.01446855 23.75 87.6875 C22.48946304 86.85826019 22.48946304 86.85826019 21.20346069 86.01226807 C18.79692861 84.42901007 16.39060286 82.84543907 13.984375 81.26171875 C13.26673477 80.78952408 12.54909454 80.31732941 11.80970764 79.83082581 C11.13225998 79.38480515 10.45481232 78.93878448 9.75683594 78.47924805 C8.88185455 77.90330147 8.88185455 77.90330147 7.98919678 77.3157196 C7.00454437 76.6644384 7.00454437 76.6644384 6 76 C4.94656403 75.43454971 3.89312805 74.86909943 2.80776978 74.28651428 C0 72 0 72 -0.7215271 68.7855835 C-0.70820343 67.51539368 -0.69487976 66.24520386 -0.68115234 64.93652344 C-0.68246658 63.88226166 -0.68246658 63.88226166 -0.68380737 62.80670166 C-0.67963594 60.48978452 -0.63301483 58.17578434 -0.5859375 55.859375 C-0.57474354 54.25085024 -0.56620429 52.64230499 -0.56021118 51.03375244 C-0.53732793 46.80488366 -0.47841104 42.57725609 -0.4119873 38.34887695 C-0.3505527 34.03223462 -0.32319378 29.71539122 -0.29296875 25.3984375 C-0.22866552 16.93172275 -0.12629433 8.46601587 0 0 Z " fill="#111318" transform="translate(726,351)"/>
<path d="M0 0 C0.23211976 9.26631558 0.40958544 18.53162503 0.51812172 27.80021763 C0.57022678 32.10459413 0.64083668 36.40697648 0.75439453 40.71020508 C0.86338561 44.86658599 0.92290647 49.02105486 0.94877243 53.17875481 C0.96719301 54.76140387 1.00317021 56.3439528 1.05730057 57.92578316 C1.46343636 70.29056545 1.46343636 70.29056545 -2.08843994 74.4394989 C-4.64739488 76.25623958 -7.1698643 77.65330909 -10 79 C-11.03769531 79.68408936 -12.07539063 80.36817871 -13.14453125 81.07299805 C-14.46517578 81.90891479 -14.46517578 81.90891479 -15.8125 82.76171875 C-16.81506836 83.39891846 -17.81763672 84.03611816 -18.85058594 84.69262695 C-20.4095459 85.68008911 -20.4095459 85.68008911 -22 86.6875 C-30.0109089 91.78816849 -37.97937883 96.93674947 -45.86303711 102.23168945 C-52.72641428 106.83531276 -59.64373631 111.35530729 -66.5625 115.875 C-74.50677826 121.06503427 -82.43550062 126.27657731 -90.32421875 131.55078125 C-91.01967804 132.0157048 -91.71513733 132.48062836 -92.43167114 132.9596405 C-95.23390977 134.83376606 -98.03570599 136.70854132 -100.83569336 138.58602905 C-108.0528603 143.42407719 -115.28684518 148.22138752 -122.64453125 152.84375 C-123.53617477 153.40549675 -123.53617477 153.40549675 -124.4458313 153.97859192 C-127.21824248 155.72313538 -129.99763549 157.45434141 -132.79003906 159.16674805 C-133.74749023 159.76527588 -134.70494141 160.36380371 -135.69140625 160.98046875 C-136.52873291 161.49504639 -137.36605957 162.00962402 -138.22875977 162.53979492 C-139.10552368 163.26259644 -139.10552368 163.26259644 -140 164 C-140 164.99 -140 165.98 -140 167 C-137.62026174 168.9818442 -137.62026174 168.9818442 -134.44140625 170.9375 C-133.54455864 171.51930023 -133.54455864 171.51930023 -132.6295929 172.112854 C-131.31341623 172.96485993 -129.99406531 173.81197657 -128.67205811 174.65490723 C-126.52356967 176.02482269 -124.38321341 177.40667284 -122.24462891 178.79199219 C-119.94114713 180.28371894 -117.6370625 181.77444527 -115.33050537 183.26141357 C-106.99941543 188.63249992 -98.72504728 194.0885652 -90.4524231 199.54910278 C-86.110671 202.41431884 -81.76618645 205.27538538 -77.421875 208.13671875 C-76.55748306 208.70615707 -75.69309113 209.2755954 -74.80250549 209.86228943 C-68.83435906 213.79348252 -62.86327483 217.7201842 -56.890625 221.64453125 C-38.54929732 233.69711003 -20.23726033 245.79038924 -2 258 C-4.56598245 266.9124515 -7.55427199 275.66938006 -10.56079102 284.44042969 C-11.43511066 286.99302427 -12.3046348 289.54721846 -13.17382812 292.1015625 C-15.92187266 300.14892399 -18.6784216 308.16615993 -22 316 C-25.23850605 314.78261949 -28.08588381 313.44613691 -30.97265625 311.54296875 C-31.76704102 311.0224292 -32.56142578 310.50188965 -33.37988281 309.96557617 C-34.26514648 309.37881104 -35.15041016 308.7920459 -36.0625 308.1875 C-37.02639648 307.55368408 -37.99029297 306.91986816 -38.98339844 306.2668457 C-41.27626789 304.75804404 -43.56782668 303.24739026 -45.85791016 301.734375 C-49.7724648 299.14879056 -53.69163277 296.57025407 -57.61125183 293.99235535 C-75.58065608 282.17398373 -93.53599893 270.33580488 -111.41650391 258.38330078 C-119.62573065 252.90158613 -127.86912191 247.47355028 -136.125 242.0625 C-136.77114258 241.63898254 -137.41728516 241.21546509 -138.08300781 240.77911377 C-139.41057648 239.90898588 -140.7381523 239.0388689 -142.06573486 238.16876221 C-142.74271423 237.72506287 -143.4196936 237.28136353 -144.1171875 236.82421875 C-144.80721863 236.37197937 -145.49724976 235.91973999 -146.20819092 235.45379639 C-154.96676017 229.71242208 -163.7187661 223.96107345 -172.4677124 218.20504761 C-174.31329594 216.9911164 -176.15919939 215.77767141 -178.00543213 214.56472778 C-180.59296666 212.86468255 -183.17942346 211.16300964 -185.765625 209.4609375 C-186.92748825 208.69829338 -186.92748825 208.69829338 -188.11282349 207.92024231 C-189.1905452 207.21021309 -189.1905452 207.21021309 -190.29003906 206.48583984 C-191.22447845 205.8713649 -191.22447845 205.8713649 -192.17779541 205.24447632 C-192.77912292 204.83379913 -193.38045044 204.42312195 -194 204 C-194.72387909 203.59478119 -195.44775818 203.18956238 -196.193573 202.77206421 C-198.9172163 200.10023147 -198.54894003 197.91585512 -198.61279297 194.16113281 C-198.62944 193.4696817 -198.64608704 192.77823059 -198.66323853 192.06582642 C-198.71145868 189.77803053 -198.72898416 187.49137528 -198.7421875 185.203125 C-198.76012341 183.60992087 -198.77836717 182.01672018 -198.79690552 180.42352295 C-198.8298988 177.08109356 -198.84528696 173.73906498 -198.85107422 170.39648438 C-198.86182719 166.12349599 -198.93709392 161.85430378 -199.02856255 157.58238602 C-199.0882225 154.2895963 -199.10252365 150.9977127 -199.10452652 147.70442963 C-199.11291359 146.13028373 -199.13771625 144.55613302 -199.17956161 142.98252106 C-199.47978769 130.71233204 -199.47978769 130.71233204 -195.89674377 126.56622314 C-193.34232914 124.75498768 -190.81999762 123.35204994 -188 122 C-186.9896167 121.32227539 -185.9792334 120.64455078 -184.93823242 119.94628906 C-184.08592041 119.39166992 -183.2336084 118.83705078 -182.35546875 118.265625 C-181.36329346 117.61859619 -180.37111816 116.97156738 -179.34887695 116.30493164 C-177.78399536 115.28774048 -177.78399536 115.28774048 -176.1875 114.25 C-175.06391226 113.51770224 -173.94046193 112.78519364 -172.81713867 112.05249023 C-170.44452783 110.50498891 -168.07150973 108.95811507 -165.69824219 107.41162109 C-159.39715761 103.30417458 -153.10451029 99.18382843 -146.8125 95.0625 C-146.18822113 94.65366577 -145.56394226 94.24483154 -144.92074585 93.8236084 C-138.43122286 89.57289102 -131.94448977 85.31884057 -125.5 81 C-118.61640566 76.38714549 -111.6830678 71.85047673 -104.75 67.3125 C-94.12709794 60.35894104 -83.50767945 53.40014915 -72.89611816 46.42929077 C-71.40886473 45.4523839 -69.92148351 44.47567155 -68.43395996 43.49917603 C-60.41122017 38.23240989 -52.40405603 32.94387337 -44.42355347 27.61331177 C-38.22366875 23.47521734 -31.9907966 19.38866194 -25.75 15.3125 C-24.12964844 14.25192383 -24.12964844 14.25192383 -22.4765625 13.16992188 C-19.3213477 11.10762787 -16.16134568 9.05288015 -13 7 C-11.95263672 6.31470215 -10.90527344 5.6294043 -9.82617188 4.92333984 C-8.34213867 3.96161865 -8.34213867 3.96161865 -6.828125 2.98046875 C-5.50409668 2.11844849 -5.50409668 2.11844849 -4.15332031 1.23901367 C-2 0 -2 0 0 0 Z " fill="#111217" transform="translate(298,351)"/>
<path d="M0 0 C17.82 0 35.64 0 54 0 C53.25967235 5.18229356 52.32432534 9.59469562 50.6640625 14.46875 C50.42924667 15.17296082 50.19443085 15.87717163 49.95249939 16.60272217 C49.18290006 18.90396044 48.40420633 21.20199866 47.625 23.5 C47.07910314 25.12459299 46.5334524 26.74926871 45.98803711 28.37402344 C42.20186136 39.61616509 38.24580547 50.79074523 34.23046875 61.95288086 C29.71076617 74.58554242 25.59573175 87.34796649 21.50219727 100.12402344 C18.85123875 108.38713177 16.12658188 116.6010119 13.17089844 124.76098633 C11.24390064 130.0915701 9.4063646 135.45270933 7.5625 140.8125 C7.14057373 142.03694824 6.71864746 143.26139648 6.28393555 144.52294922 C3.76447369 151.84018458 1.2604471 159.16261045 -1.234375 166.48828125 C-7.45913093 184.76397308 -13.72837554 203.02218054 -20.10443115 221.24569702 C-25.29804346 236.08994235 -30.44006556 250.95152446 -35.56518555 265.81954956 C-43.97093118 290.20118887 -52.5199095 314.51767719 -61.37670898 338.73950195 C-63.36153658 344.18455423 -65.2684093 349.64496819 -67.015625 355.171875 C-68.52363529 359.50441249 -70.29625256 363.74063141 -72 368 C-89.49 368 -106.98 368 -125 368 C-123.87500781 360.1250547 -123.87500781 360.1250547 -122.47216797 356.11425781 C-122.00341499 354.75894455 -122.00341499 354.75894455 -121.52519226 353.37625122 C-121.18430069 352.41161957 -120.84340912 351.44698792 -120.4921875 350.453125 C-120.13522293 349.42686005 -119.77825836 348.40059509 -119.41047668 347.3432312 C-118.23791213 343.97671968 -117.05641161 340.61341588 -115.875 337.25 C-115.04862027 334.88156206 -114.22286291 332.51290689 -113.39770508 330.14404297 C-110.9397077 323.09325177 -108.47118241 316.04617919 -106 309 C-103.56064476 302.04231503 -101.12237437 295.08425447 -98.6875 288.125 C-98.39437927 287.28795532 -98.10125854 286.45091064 -97.79925537 285.58850098 C-91.67674478 268.09123057 -85.74369887 250.53043148 -79.81367493 232.96728897 C-73.82271489 215.22375644 -67.77537123 197.5031903 -61.56671143 179.8343811 C-54.81740452 160.61553973 -48.29941468 141.31882985 -41.78686523 122.01879883 C-41.37384659 120.79601227 -40.96082794 119.57322571 -40.53529358 118.31338501 C-39.76668667 116.03730097 -38.99912446 113.76086373 -38.2328949 111.48397827 C-36.40145591 106.06022111 -34.52728621 100.65583564 -32.59033203 95.26879883 C-29.9671446 87.9568881 -27.47058671 80.60578267 -24.99427795 73.24319458 C-24.19559866 70.86866958 -23.39528619 68.4947001 -22.59460449 66.12084961 C-20.89501644 61.08103312 -19.19735421 56.04056919 -17.5 51 C-15.52933203 45.14778117 -13.55782184 39.29584874 -11.58424377 33.4446106 C-10.8051015 31.13325634 -10.02744914 28.82140464 -9.24987793 26.50952148 C-8.76106004 25.05970822 -8.27217187 23.60991865 -7.78320312 22.16015625 C-7.15629578 20.29822632 -7.15629578 20.29822632 -6.51672363 18.39868164 C-4.39583242 12.24784107 -2.18828171 6.12718878 0 0 Z " fill="#12D3F8" transform="translate(407,333)"/>
<path d="M0 0 C1.25939498 3.52792055 0.75080075 5.31069832 -0.75 8.6875 C-2.0720728 11.79032392 -3.33836579 14.85268083 -4.375 18.0625 C-5.32831476 21.01100357 -6.32875562 23.93642864 -7.37890625 26.8515625 C-10.26157916 34.86265829 -12.86738357 42.84094168 -15.1328125 51.05078125 C-16.16007586 54.54440212 -17.50427525 57.68339294 -19 61 C-20.84617214 66.08204529 -22.38041839 71.26142011 -23.9375 76.4375 C-25.41850608 81.29316497 -27.12336112 85.96870595 -29.0546875 90.66015625 C-31.52261481 96.76878625 -33.10255312 102.46145842 -34 109 C-35.0625 111.4375 -35.0625 111.4375 -36 113 C-36.66 113 -37.32 113 -38 113 C-37.9071875 114.0209375 -37.9071875 114.0209375 -37.8125 115.0625 C-38.00812782 118.12733583 -38.87063374 120.28951137 -40.14453125 123.05859375 C-42.39478067 128.16532417 -43.8859483 133.58674331 -45.4375 138.9375 C-46.44795709 142.36564761 -47.62706316 145.63827536 -49 148.9375 C-50.43927865 152.42120855 -51.55567017 155.85098638 -52.5 159.5 C-53.65523309 163.95857528 -55.18748883 168.08012593 -56.9609375 172.32421875 C-58.57569976 176.4825351 -59.7836592 180.75621531 -61.0625 185.02734375 C-61.7951765 187.35053881 -62.57364154 189.53021876 -63.5625 191.75 C-64.96238221 194.91495109 -66.04985427 198.06139342 -67.1171875 201.34765625 C-68.19436108 204.58394324 -69.34603317 207.79031381 -70.5 211 C-73.16372573 218.43457778 -75.66339998 225.87479527 -77.9375 233.4375 C-80.63676097 242.25371739 -84.19170794 250.61365473 -88 259 C-89 257 -89 257 -88.46432495 254.89886475 C-88.1523819 254.02441711 -87.84043884 253.14996948 -87.51904297 252.24902344 C-87.16549744 251.24563431 -86.8119519 250.24224518 -86.44769287 249.20845032 C-86.0498761 248.10325546 -85.65205933 246.99806061 -85.2421875 245.859375 C-84.83180237 244.69919357 -84.42141724 243.53901215 -83.99859619 242.34367371 C-83.10257815 239.81185838 -82.20403849 237.28110073 -81.30133057 234.75167847 C-79.11628344 228.62691024 -76.9550578 222.4937307 -74.79441452 216.36031914 C-74.29328957 214.93777746 -73.7919264 213.51531969 -73.29033279 212.09294319 C-67.99497816 197.07188995 -62.87050605 181.99518525 -57.78659058 166.90148163 C-51.4536287 148.10160565 -45.06546509 129.32433774 -38.4906311 110.60742188 C-32.98353568 94.92251444 -27.63647415 79.18540937 -22.3125 63.4375 C-16.9137388 47.4713628 -11.49305135 31.51551646 -5.875 15.625 C-5.6245694 14.91568329 -5.37413879 14.20636658 -5.11611938 13.47555542 C-1.20225813 2.40451626 -1.20225813 2.40451626 0 0 Z " fill="#4AC9DD" transform="translate(375,428)"/>
<path d="M0 0 C17.82 0 35.64 0 54 0 C53.23804932 5.33365475 52.21955427 9.88308152 50.49609375 14.90234375 C50.13198143 15.98619102 50.13198143 15.98619102 49.76051331 17.0919342 C48.99184073 19.37574819 48.2148266 21.65661889 47.4375 23.9375 C46.91155318 25.49525503 46.3861571 27.05319612 45.86132812 28.61132812 C44.58057492 32.40973253 43.2923382 36.20552235 42 40 C40.83820221 36.51460663 41.22928915 35.634577 42.375 32.25 C43.69707332 28.13285844 44.53341934 24.29254211 45 20 C45.66 20 46.32 20 47 20 C47 18.02 47 16.04 47 14 C47.66 14 48.32 14 49 14 C49.33 10.37 49.66 6.74 50 3 C34.16 2.67 18.32 2.34 2 2 C1.67 3.98 1.34 5.96 1 8 C0.01 9.485 0.01 9.485 -1 11 C-1.76679475 13.5606467 -2.47234447 16.09863308 -3.125 18.6875 C-3.30675781 19.38939453 -3.48851562 20.09128906 -3.67578125 20.81445312 C-4.12227079 22.54166268 -4.5618166 24.27066456 -5 26 C-5.66 26 -6.32 26 -7 26 C-7.103125 26.94875 -7.20625 27.8975 -7.3125 28.875 C-8 32 -8 32 -11 34 C-7.86582117 22.50801097 -3.91324315 11.25057407 0 0 Z " fill="#33CBE5" transform="translate(407,333)"/>
<path d="M0 0 C1.41635827 4.48435028 0.02260873 7.74279369 -1.5078125 12.0234375 C-1.78497101 12.82550125 -2.06212952 13.627565 -2.34768677 14.45393372 C-3.26371941 17.09778822 -4.19437713 19.73624974 -5.125 22.375 C-5.7624772 24.20706134 -6.3988579 26.03950455 -7.03417969 27.87231445 C-8.3524896 31.67219635 -9.67590665 35.47024243 -11.00292969 39.26708984 C-13.84111848 47.39908175 -16.62085147 55.55099355 -19.40179443 63.70269775 C-20.23667733 66.1484715 -21.07330592 68.59364023 -21.91064453 71.03857422 C-22.17158905 71.80062668 -22.43253357 72.56267914 -22.7013855 73.3478241 C-23.18378937 74.7564853 -23.66630328 76.16510883 -24.1489563 77.57368469 C-25.45042827 81.3766465 -26.73410808 85.18504871 -28 89 C-30.13330563 81.84049702 -28.00790806 75.59425998 -25 69 C-24.23560908 66.35615306 -23.52070955 63.7066055 -22.84375 61.0390625 C-22.5653125 60.36617188 -22.286875 59.69328125 -22 59 C-20.515 58.505 -20.515 58.505 -19 58 C-18.96914307 57.4013916 -18.93828613 56.8027832 -18.90649414 56.18603516 C-18.41547177 49.44996471 -16.7957837 43.67932276 -14.4375 37.375 C-14.10814453 36.46621094 -13.77878906 35.55742187 -13.43945312 34.62109375 C-12.63650888 32.41008785 -11.82333629 30.203475 -11 28 C-10.34 28 -9.68 28 -9 28 C-8.81824219 27.27296875 -8.63648438 26.5459375 -8.44921875 25.796875 C-7.92041938 23.6816775 -7.38898164 21.56713854 -6.85546875 19.453125 C-6.29666744 17.19750691 -5.75673245 14.93710793 -5.23828125 12.671875 C-4.99464844 11.62515625 -4.75101562 10.5784375 -4.5 9.5 C-4.2834375 8.5409375 -4.066875 7.581875 -3.84375 6.59375 C-2.9624062 3.88443388 -1.8330647 2.15894287 0 0 Z " fill="#D0FCFE" transform="translate(403,341)"/>
<path d="M0 0 C1.28826661 3.86479984 0.43958402 5.37491237 -0.87109375 9.19921875 C-1.23904053 10.28807373 -1.6069873 11.37692871 -1.98608398 12.4987793 C-2.46505127 13.88105713 -2.94401855 15.26333496 -3.4375 16.6875 C-4.943125 21.080625 -6.44875 25.47375 -8 30 C9.49 30 26.98 30 45 30 C45.66 28.68 46.32 27.36 47 26 C47.042721 27.66611905 47.04063832 29.33382885 47 31 C46 32 46 32 43.75376892 32.12025452 C42.76115555 32.11803391 41.76854218 32.11581329 40.74584961 32.11352539 C39.62476303 32.11344986 38.50367645 32.11337433 37.34861755 32.11329651 C35.51896202 32.10555458 35.51896202 32.10555458 33.65234375 32.09765625 C32.41078018 32.0962413 31.16921661 32.09482635 29.89002991 32.09336853 C26.58394509 32.08870591 23.27792854 32.07971497 19.97186279 32.06866455 C16.6003885 32.05844827 13.22890717 32.05387045 9.85742188 32.04882812 C3.23826225 32.03777395 -3.38086493 32.02101736 -10 32 C-9.86680326 30.07279722 -9.72582341 28.14613127 -9.58154297 26.21972656 C-9.50386688 25.14676331 -9.4261908 24.07380005 -9.34616089 22.96832275 C-8.93151199 19.41271666 -7.90342617 16.84676199 -6.125 13.75 C-3.64968624 9.22779216 -1.68509714 4.86805839 0 0 Z " fill="#B7F4FA" transform="translate(290,671)"/>
<path d="M0 0 C1.05124946 3.45197516 0.72148681 5.4139501 -0.39453125 8.859375 C-1.39400382 12.39299417 -1.87744443 16.01917152 -2.4375 19.64453125 C-3 22 -3 22 -5 24 C-5.64767793 26.57061311 -5.64767793 26.57061311 -6 29 C-6.66 29 -7.32 29 -8 29 C-7.896875 29.886875 -7.79375 30.77375 -7.6875 31.6875 C-7.64998458 37.76499852 -10.49552373 43.57363476 -13 49 C-13.66 49.66 -14.32 50.32 -15 51 C-15.60602665 53.36195411 -15.60602665 53.36195411 -16 56 C-16.77777778 60.77777778 -16.77777778 60.77777778 -19 63 C-20.03842565 65.31648799 -21.0421975 67.64903024 -22 70 C-23.34076149 67.31847703 -22.49649025 65.9101304 -21.5894165 63.17623901 C-21.3626825 62.51866608 -21.13594849 61.86109314 -20.90234375 61.18359375 C-20.67295105 60.49975616 -20.44355835 59.81591858 -20.20721436 59.11135864 C-19.4579314 56.88420245 -18.69791384 54.6608778 -17.9375 52.4375 C-17.42174465 50.91220955 -16.90652663 49.38673731 -16.3918457 47.86108398 C-13.44818115 39.15559881 -10.44537227 30.47224237 -7.34765625 21.8203125 C-4.77374094 14.59021332 -2.40375897 7.28799262 0 0 Z " fill="#C8F9FC" transform="translate(457,346)"/>
<path d="M0 0 C2 3 2 3 1.86328125 5.19921875 C0.29966748 12.26320437 -1.7415472 18.63046873 -5.0625 25.0625 C-6.88975637 28.62703421 -7.99399099 32.1100985 -9 36 C-9.53550693 37.81432945 -10.07745104 39.62676833 -10.625 41.4375 C-11.01558594 42.73494141 -11.01558594 42.73494141 -11.4140625 44.05859375 C-11.60742188 44.69925781 -11.80078125 45.33992187 -12 46 C-12.66 46 -13.32 46 -14 46 C-14 47.98 -14 49.96 -14 52 C-15.32 52.66 -16.64 53.32 -18 54 C-15.80957482 45.4026363 -13.05184385 37.05932813 -10.125 28.6875 C-9.70347656 27.47126953 -9.28195312 26.25503906 -8.84765625 25.00195312 C-5.94702221 16.65043339 -2.98576902 8.32137496 0 0 Z " fill="#C2F9FC" transform="translate(407,493)"/>
<path d="M0 0 C0.99 0.33 1.98 0.66 3 1 C2.67 24.43 2.34 47.86 2 72 C1.34 72 0.68 72 0 72 C0 48.24 0 24.48 0 0 Z " fill="#252529" transform="translate(726,351)"/>
<path d="M0 0 C17.82 0 35.64 0 54 0 C53.23804932 5.33365475 52.21955427 9.88308152 50.49609375 14.90234375 C50.13198143 15.98619102 50.13198143 15.98619102 49.76051331 17.0919342 C48.99184073 19.37574819 48.2148266 21.65661889 47.4375 23.9375 C46.91155318 25.49525503 46.3861571 27.05319612 45.86132812 28.61132812 C44.58057492 32.40973253 43.2923382 36.20552235 42 40 C40.83820221 36.51460663 41.22928915 35.634577 42.375 32.25 C43.69707332 28.13285844 44.53341934 24.29254211 45 20 C45.66 20 46.32 20 47 20 C47 18.02 47 16.04 47 14 C47.66 14 48.32 14 49 14 C49.99 9.71 50.98 5.42 52 1 C35.17 1 18.34 1 1 1 C0.67 2.65 0.34 4.3 0 6 C-0.99 6.495 -0.99 6.495 -2 7 C-1.34 4.69 -0.68 2.38 0 0 Z " fill="#46C5D8" transform="translate(407,333)"/>
<path d="M0 0 C1.44736283 4.3420885 -0.35241511 7.50407787 -1.875 11.625 C-2.34450073 12.93017578 -2.34450073 12.93017578 -2.82348633 14.26171875 C-3.87410717 17.17751838 -4.93727543 20.08859207 -6 23 C-7.17522678 26.25088101 -8.34715083 29.50293494 -9.51806641 32.75537109 C-10.2769031 34.86078647 -11.03815355 36.96533402 -11.80224609 39.06884766 C-14.0265761 45.20904004 -16.12065139 51.37163976 -18.08129883 57.6015625 C-19 60 -19 60 -21 62 C-20.40530788 57.933267 -19.51836651 54.19905439 -18.1875 50.3125 C-17.83429688 49.27222656 -17.48109375 48.23195313 -17.1171875 47.16015625 C-16.06049381 44.17111712 -14.94139946 41.21233106 -13.8125 38.25 C-12.64412949 35.09675296 -11.78859293 32.28652027 -11.5 28.9375 C-10.96139219 24.69596348 -9.71386296 21.44869201 -8.0546875 17.54296875 C-6.48806881 13.76567703 -5.24155575 9.89397031 -4 6 C-3.34 6 -2.68 6 -2 6 C-1.34 4.02 -0.68 2.04 0 0 Z " fill="#36C9E3" transform="translate(358,631)"/>
<path d="M0 0 C0.33 0 0.66 0 1 0 C1.05437607 1.58294782 1.09296271 3.16644256 1.125 4.75 C1.14820313 5.63171875 1.17140625 6.5134375 1.1953125 7.421875 C0.98870725 10.14906426 0.47305841 11.71315408 -1 14 C-1.99 14.495 -1.99 14.495 -3 15 C-5.48847876 20.44131481 -6.46248864 26.08737499 -7 32 C-7.66 32 -8.32 32 -9 32 C-9.17015625 32.83144531 -9.3403125 33.66289063 -9.515625 34.51953125 C-9.75796875 35.60621094 -10.0003125 36.69289063 -10.25 37.8125 C-10.48203125 38.89144531 -10.7140625 39.97039063 -10.953125 41.08203125 C-12.10978162 44.3059958 -13.09650135 45.29029522 -16 47 C-14.24925769 39.43012373 -11.64509385 32.34562454 -8.77490234 25.14941406 C-5.50216019 16.88015863 -2.73032746 8.46101476 0 0 Z " fill="#C5FAFD" transform="translate(362,623)"/>
<path d="M0 0 C1.10612868 3.31838603 0.94236067 3.90982019 -0.13989258 7.07250977 C-0.41380325 7.88667862 -0.68771393 8.70084747 -0.96992493 9.53968811 C-1.27504501 10.4147551 -1.5801651 11.28982208 -1.89453125 12.19140625 C-2.20194748 13.0924559 -2.50936371 13.99350555 -2.82609558 14.92185974 C-3.47843807 16.82724615 -4.13524263 18.73110981 -4.79614258 20.63354492 C-5.80842215 23.55074839 -6.80466353 26.4730645 -7.79882812 29.39648438 C-8.43394872 31.24511733 -9.06998577 33.09343573 -9.70703125 34.94140625 C-10.00607864 35.81849747 -10.30512604 36.69558868 -10.61323547 37.59925842 C-10.89660263 38.41027512 -11.17996979 39.22129181 -11.47192383 40.05688477 C-11.71920731 40.77175552 -11.96649078 41.48662628 -12.2212677 42.22315979 C-13 44 -13 44 -15 46 C-14.32894305 37.94731663 -13.55820002 28.83730003 -9 22 C-8.34 22 -7.68 22 -7 22 C-6.74476563 21.00033203 -6.74476563 21.00033203 -6.484375 19.98046875 C-4.69190972 13.16338007 -2.50936426 6.58548894 0 0 Z " fill="#35C8E3" transform="translate(392,533)"/>
<path d="M0 0 C1.26471653 3.79414959 0.51387903 5.16772767 -0.765625 8.91796875 C-1.16136719 10.09037109 -1.55710937 11.26277344 -1.96484375 12.47070312 C-2.38894531 13.69724609 -2.81304687 14.92378906 -3.25 16.1875 C-3.65863281 17.39470703 -4.06726563 18.60191406 -4.48828125 19.84570312 C-6.55971733 25.93679088 -8.6959599 31.99303832 -11 38 C-11.33 38 -11.66 38 -12 38 C-12.28875884 33.28360555 -11.74236475 30.22692883 -9.81323242 25.95141602 C-8.11834658 21.88440234 -7.11191249 17.56815881 -5.98242188 13.31640625 C-4.60027106 8.36929039 -2.70841687 4.37026927 0 0 Z " fill="#35C8E2" transform="translate(414,469)"/>
<path d="M0 0 C1.3480725 4.04421749 -0.00944928 6.68082513 -1.38671875 10.52734375 C-1.64499954 11.2715004 -1.90328033 12.01565704 -2.16938782 12.78236389 C-3.00028058 15.17046911 -3.84355263 17.55398073 -4.6875 19.9375 C-5.23717672 21.50816682 -5.78601399 23.07912769 -6.33398438 24.65039062 C-7.13721577 26.95355127 -7.94175846 29.2561721 -8.75241089 31.55673218 C-10.64938277 36.94601624 -12.44077802 42.36304383 -14.15161133 47.81469727 C-15 50 -15 50 -17 52 C-15.23055908 42.96908295 -12.19800056 34.45538034 -9.18945312 25.7734375 C-7.28111854 20.17648893 -5.49387015 14.90911308 -5 9 C-4.34 9 -3.68 9 -3 9 C-2.87625 8.2575 -2.7525 7.515 -2.625 6.75 C-2.04513299 4.19858515 -1.26291261 2.2732427 0 0 Z " fill="#44C7DD" transform="translate(432,417)"/>
<path d="M0 0 C2 3 2 3 1.74609375 4.8984375 C0.93480405 7.18364094 0.0234504 9.39849605 -0.9375 11.625 C-2.71833515 15.97100926 -3.76877307 20.14312925 -4.5078125 24.7734375 C-5.02236907 27.1011934 -5.85099954 28.92040413 -7 31 C-7.66 31 -8.32 31 -9 31 C-8.4724355 25.1707379 -7.25073381 20.34773756 -5.0625 14.9375 C-3.10627896 10.0017306 -1.38094652 5.13018298 0 0 Z " fill="#CBFBFD" transform="translate(427,434)"/>
<path d="M0 0 C1.34477554 4.03432662 0.25197378 5.7531321 -1.203125 9.72265625 C-1.44158142 10.38277206 -1.68003784 11.04288788 -1.92572021 11.7230072 C-2.69188782 13.83941351 -3.47033018 15.95103471 -4.25 18.0625 C-5.2592623 20.82275228 -6.26343049 23.58483074 -7.265625 26.34765625 C-7.5071228 27.01117096 -7.74862061 27.67468567 -7.99743652 28.35830688 C-9.86195646 33.51886515 -11.52528581 38.71560747 -13 44 C-14.03198323 40.3863669 -13.81192462 37.9530393 -13.0625 34.25 C-12.86785156 33.26515625 -12.67320312 32.2803125 -12.47265625 31.265625 C-12.23869141 30.14414062 -12.23869141 30.14414062 -12 29 C-11.01 28.67 -10.02 28.34 -9 28 C-8.89558594 27.19820313 -8.79117187 26.39640625 -8.68359375 25.5703125 C-7.84443187 21.18748987 -6.49739096 17.09364823 -5.0625 12.875 C-4.79759766 12.07707031 -4.53269531 11.27914063 -4.25976562 10.45703125 C-3.03834542 6.82610964 -1.77345311 3.40384736 0 0 Z " fill="#3FC4DC" transform="translate(447,373)"/>
<path d="M0 0 C0.66 0 1.32 0 2 0 C0.41629695 8.29168664 -2.32915488 16.11953709 -5.125 24.0625 C-5.5981182 25.4184587 -6.07077806 26.77457741 -6.54296875 28.13085938 C-7.69003678 31.42243361 -8.84328344 34.71180215 -10 38 C-11.61792193 32.09562553 -10.09051742 26.72385714 -7.125 21.4375 C-4.54524287 16.70311426 -3.50951189 11.58524189 -2.30712891 6.37084961 C-1.08468332 1.08468332 -1.08468332 1.08468332 0 0 Z " fill="#CAFCFE" transform="translate(321,578)"/>
<path d="M0 0 C0.33 0 0.66 0 1 0 C1 2.97 1 5.94 1 9 C0.34 9 -0.32 9 -1 9 C-1 10.98 -1 12.96 -1 15 C-1.66 15 -2.32 15 -3 15 C-2.938125 16.051875 -2.938125 16.051875 -2.875 17.125 C-3.0206795 20.4756284 -3.63752201 22.93442452 -5 26 C-7.078125 27.17578125 -7.078125 27.17578125 -9 28 C-6.64500307 18.43540722 -3.35051831 9.24916544 0 0 Z " fill="#D9FDFE" transform="translate(388,548)"/>
<path d="M0 0 C1.34915457 4.3897865 0.36486973 8.01571758 -0.6875 12.375 C-0.84927734 13.1175 -1.01105469 13.86 -1.17773438 14.625 C-2.3329584 19.52280372 -3.88428473 23.03007482 -7 27 C-7.66 27.33 -8.32 27.66 -9 28 C-6.64500307 18.43540722 -3.35051831 9.24916544 0 0 Z " fill="#BDF8FC" transform="translate(378,577)"/>
<path d="M0 0 C1.38328253 4.14984758 -0.11707877 6.99685252 -1.52734375 10.94921875 C-1.79511124 11.72183548 -2.06287872 12.49445221 -2.33876038 13.29048157 C-3.19654012 15.75920172 -4.06683607 18.22329796 -4.9375 20.6875 C-5.52101152 22.35973692 -6.10370415 24.03225983 -6.68554688 25.70507812 C-8.11421448 29.80676519 -9.55412316 33.9043493 -11 38 C-11.33 38 -11.66 38 -12 38 C-10.93442864 29.29783392 -8.13606247 21.40050755 -5.12304688 13.22851562 C-3.9406186 9.95251112 -2.99844811 6.99037393 -2.44140625 3.53515625 C-2.29574219 2.69855469 -2.15007812 1.86195313 -2 1 C-1.34 0.67 -0.68 0.34 0 0 Z " fill="#C5FBFE" transform="translate(343,517)"/>
<path d="M0 0 C1.32784412 3.98353235 0.05036338 6.50827496 -1.30859375 10.29296875 C-1.67695091 11.35201164 -1.67695091 11.35201164 -2.05274963 12.43244934 C-2.83919339 14.68720422 -3.63815596 16.93729014 -4.4375 19.1875 C-4.97283547 20.7152041 -5.50735095 22.24319582 -6.04101562 23.77148438 C-7.35118472 27.51772683 -8.67259848 31.25983057 -10 35 C-10.33 35 -10.66 35 -11 35 C-11.29085588 29.27983432 -11.05271798 26.91465944 -8 22 C-7.0714109 19.72951913 -6.19908272 17.43546506 -5.375 15.125 C-4.94960938 13.95195312 -4.52421875 12.77890625 -4.0859375 11.5703125 C-2.89307852 7.99166137 -2.89307852 7.99166137 -2.4765625 4.1171875 C-2.31929688 3.08851563 -2.16203125 2.05984375 -2 1 C-1.34 0.67 -0.68 0.34 0 0 Z " fill="#CAFCFE" transform="translate(355,482)"/>
<path d="M0 0 C2.25946186 7.75463179 -1.56145551 16.95917081 -5 24 C-5.66 24 -6.32 24 -7 24 C-7.33 24.66 -7.66 25.32 -8 26 C-7.32058766 20.23934889 -5.39116805 15.04884675 -3.4375 9.625 C-3.10814453 8.69816406 -2.77878906 7.77132812 -2.43945312 6.81640625 C-1.6307437 4.54264353 -0.81748642 2.2706187 0 0 Z " fill="#C4FAFD" transform="translate(345,671)"/>
<path d="M0 0 C0.66 0 1.32 0 2 0 C1.31063929 3.91121498 0.21749819 7.55508596 -1.0625 11.3125 C-1.42472656 12.38113281 -1.78695313 13.44976563 -2.16015625 14.55078125 C-2.57587891 15.76314453 -2.57587891 15.76314453 -3 17 C-3.66 17 -4.32 17 -5 17 C-5.19335938 17.69867187 -5.38671875 18.39734375 -5.5859375 19.1171875 C-5.84632813 20.02726563 -6.10671875 20.93734375 -6.375 21.875 C-6.63023437 22.77992188 -6.88546875 23.68484375 -7.1484375 24.6171875 C-8 27 -8 27 -10 29 C-8.10374592 18.82918268 -4.16766733 9.43208923 0 0 Z " fill="#DAFDFE" transform="translate(295,654)"/>
<path d="M0 0 C1.38328253 4.14984758 -0.11707877 6.99685252 -1.52734375 10.94921875 C-1.79511124 11.72183548 -2.06287872 12.49445221 -2.33876038 13.29048157 C-3.19654012 15.75920172 -4.06683607 18.22329796 -4.9375 20.6875 C-5.52101152 22.35973692 -6.10370415 24.03225983 -6.68554688 25.70507812 C-8.11421448 29.80676519 -9.55412316 33.9043493 -11 38 C-11.33 38 -11.66 38 -12 38 C-12.2404065 33.4723443 -11.62941146 30.48479736 -9.75 26.375 C-4.95103251 15.42776941 -4.95103251 15.42776941 -2.375 3.8125 C-2.25125 2.884375 -2.1275 1.95625 -2 1 C-1.34 0.67 -0.68 0.34 0 0 Z " fill="#C3FBFE" transform="translate(309,616)"/>
<path d="M0 0 C1.38328253 4.14984758 -0.11707877 6.99685252 -1.52734375 10.94921875 C-1.79511124 11.72183548 -2.06287872 12.49445221 -2.33876038 13.29048157 C-3.19654012 15.75920172 -4.06683607 18.22329796 -4.9375 20.6875 C-5.52101152 22.35973692 -6.10370415 24.03225983 -6.68554688 25.70507812 C-8.11421448 29.80676519 -9.55412316 33.9043493 -11 38 C-12.22158298 33.98254049 -11.39753485 31.95968208 -10 28 C-9.62468554 25.67305036 -9.28082798 23.34023315 -9 21 C-8.34 21 -7.68 21 -7 21 C-6.82984375 20.40574219 -6.6596875 19.81148438 -6.484375 19.19921875 C-4.58289682 12.69575882 -2.37613734 6.34440732 0 0 Z " fill="#C3FBFE" transform="translate(368,444)"/>
<path d="M0 0 C2 3 2 3 1.86328125 5.19921875 C0.3843423 11.88066633 -1.15919138 18.23878707 -5 24 C-3.25740319 7.1070615 -3.25740319 7.1070615 0 0 Z " fill="#E6FFFF" transform="translate(407,493)"/>
<path d="M0 0 C1.30081307 3.6113224 0.68476184 5.66493791 -0.65234375 9.203125 C-1.01650391 10.1828125 -1.38066406 11.1625 -1.75585938 12.171875 C-2.34077148 13.69554687 -2.34077148 13.69554687 -2.9375 15.25 C-3.32357422 16.28125 -3.70964844 17.3125 -4.10742188 18.375 C-5.06197732 20.92048119 -6.02644972 23.46173614 -7 26 C-8.0354051 22.8151065 -7.94040666 20.86968126 -7.00390625 17.671875 C-6.77509766 16.87265625 -6.54628906 16.0734375 -6.31054688 15.25 C-6.06369141 14.425 -5.81683594 13.6 -5.5625 12.75 C-5.19801758 11.48929688 -5.19801758 11.48929688 -4.82617188 10.203125 C-4.22626051 8.13284266 -3.61429181 6.06606103 -3 4 C-2.34 4 -1.68 4 -1 4 C-0.67 2.68 -0.34 1.36 0 0 Z " fill="#38C7DE" transform="translate(374,585)"/>
<path d="M0 0 C1.30081307 3.6113224 0.68476184 5.66493791 -0.65234375 9.203125 C-1.01650391 10.1828125 -1.38066406 11.1625 -1.75585938 12.171875 C-2.34077148 13.69554687 -2.34077148 13.69554687 -2.9375 15.25 C-3.32357422 16.28125 -3.70964844 17.3125 -4.10742188 18.375 C-5.06197732 20.92048119 -6.02644972 23.46173614 -7 26 C-7.33 26 -7.66 26 -8 26 C-8 23.69 -8 21.38 -8 19 C-7.34 19 -6.68 19 -6 19 C-6.05027344 18.30261719 -6.10054688 17.60523438 -6.15234375 16.88671875 C-5.96914821 13.4153981 -4.95559387 10.98938545 -3.5625 7.8125 C-3.11003906 6.76707031 -2.65757812 5.72164062 -2.19140625 4.64453125 C-1.48825175 3.0837588 -0.76556344 1.53112687 0 0 Z " fill="#39C6E0" transform="translate(401,507)"/>
<path d="M0 0 C0.33 0 0.66 0 1 0 C1.18130023 4.62315581 0.89069368 7.79845849 -1 12 C-1.28875 13.175625 -1.5775 14.35125 -1.875 15.5625 C-3.06394403 19.19538454 -4.25971044 20.4649548 -7 23 C-4.97810834 15.21878058 -2.61369593 7.60227292 0 0 Z " fill="#C5F9FC" transform="translate(415,469)"/>
<path d="M0 0 C2 3 2 3 1.6796875 5.12109375 C0.11448177 9.62675878 -1.14018311 12.93876591 -5 16 C-3.41078475 10.63904723 -1.81027062 5.29156027 0 0 Z " fill="#CAF9FC" transform="translate(433,417)"/>
<path d="M0 0 C1.74631582 4.12765557 0.09432896 7.64470342 -1.3125 11.625 C-1.53873047 12.305625 -1.76496094 12.98625 -1.99804688 13.6875 C-3.01718815 16.65975064 -3.75082955 18.75082955 -6 21 C-6 19.35 -6 17.7 -6 16 C-5.34 16 -4.68 16 -4 16 C-3.94392578 15.02160156 -3.94392578 15.02160156 -3.88671875 14.0234375 C-3.48506238 8.68377043 -2.83238391 4.6795908 0 0 Z " fill="#23CDEE" transform="translate(451,356)"/>
<path d="M0 0 C1.08333427 3.25000281 0.92291149 5.05324123 -0.25 8.25 C-0.52972656 9.02730469 -0.80945313 9.80460938 -1.09765625 10.60546875 C-1.39542969 11.39566406 -1.69320313 12.18585937 -2 13 C-2.28746094 13.77988281 -2.57492187 14.55976562 -2.87109375 15.36328125 C-3.57007307 17.2461777 -4.28358277 19.12366915 -5 21 C-6.2048921 16.91723611 -5.5370998 15.02573757 -4 11 C-3.28983799 9.04232907 -2.58162976 7.08394868 -1.875 5.125 C-1.25078415 3.41637998 -0.62604585 1.70795034 0 0 Z " fill="#23CBEB" transform="translate(291,675)"/>
<path d="M0 0 C1.06675441 3.30003164 0.94594883 5.72971429 0.3125 9.125 C0.09013672 10.42824219 0.09013672 10.42824219 -0.13671875 11.7578125 C-1 14 -1 14 -3.08203125 15.3046875 C-3.71496094 15.53414062 -4.34789062 15.76359375 -5 16 C-4.54548816 14.26982492 -4.08621143 12.54090123 -3.625 10.8125 C-3.36976563 9.84957031 -3.11453125 8.88664063 -2.8515625 7.89453125 C-2.05233704 5.17789793 -1.0968638 2.60862825 0 0 Z " fill="#C7FAFD" transform="translate(368,606)"/>
<path d="M0 0 C0.33 0 0.66 0 1 0 C1.67360912 8.08330939 -0.55828345 13.7355197 -4 21 C-5.46018122 16.61945633 -3.73114775 13.67733895 -1.9375 9.5625 C-0.78274104 6.40615886 -0.39163242 3.32887558 0 0 Z " fill="#E9FEFF" transform="translate(462,332)"/>
<path d="M0 0 C1.10960573 3.32881718 0.9412896 3.87364252 -0.21484375 7.01171875 C-0.48876953 7.76904297 -0.76269531 8.52636719 -1.04492188 9.30664062 C-1.33947266 10.09232422 -1.63402344 10.87800781 -1.9375 11.6875 C-2.22818359 12.48478516 -2.51886719 13.28207031 -2.81835938 14.10351562 C-3.53739302 16.07201757 -4.26763703 18.03641812 -5 20 C-6.29047599 16.12857202 -5.42485574 14.41448024 -4.1875 10.5625 C-3.83042969 9.42941406 -3.47335937 8.29632812 -3.10546875 7.12890625 C-2.21700583 4.61421084 -1.26913304 2.33727215 0 0 Z " fill="#46C7DC" transform="translate(358,631)"/>
<path d="M0 0 C1.12377697 3.30435084 0.89554742 5.0506862 -0.4375 8.25 C-0.72496094 8.95640625 -1.01242187 9.6628125 -1.30859375 10.390625 C-1.53675781 10.92171875 -1.76492188 11.4528125 -2 12 C-2.66 12 -3.32 12 -4 12 C-4.50423019 6.70558305 -3.18923033 4.18586481 0 0 Z " fill="#D6FDFE" transform="translate(403,341)"/>
<path d="M0 0 C1.39195915 4.17587745 -0.17676781 6.13474776 -2 10 C-2.66 10 -3.32 10 -4 10 C-4.33 10.66 -4.66 11.32 -5 12 C-4.125 6.25 -4.125 6.25 -3 4 C-2.34 4 -1.68 4 -1 4 C-0.67 2.68 -0.34 1.36 0 0 Z " fill="#D3FCFE" transform="translate(342,685)"/>
<path d="M0 0 C2 3 2 3 1.625 6.1875 C1.41875 7.115625 1.2125 8.04375 1 9 C-0.32 9.33 -1.64 9.66 -3 10 C-2.01 6.7 -1.02 3.4 0 0 Z " fill="#C5FAFD" transform="translate(407,493)"/>
<path d="M0 0 C1.25955231 3.77865693 0.48087189 5.03411786 -0.9375 8.6875 C-1.31777344 9.68136719 -1.69804687 10.67523437 -2.08984375 11.69921875 C-2.39019531 12.45847656 -2.69054687 13.21773437 -3 14 C-4.45002516 9.22828601 -2.96642601 6.04023269 -0.875 1.625 C-0.58625 1.08875 -0.2975 0.5525 0 0 Z " fill="#3EC7DF" transform="translate(381,565)"/>
<path d="M0 0 C0.33 0 0.66 0 1 0 C1 2.97 1 5.94 1 9 C-0.98 9.99 -0.98 9.99 -3 11 C-2.01 7.37 -1.02 3.74 0 0 Z " fill="#C1F7FC" transform="translate(382,565)"/>
<path d="M0 0 C0.33 0 0.66 0 1 0 C1 2.97 1 5.94 1 9 C-0.98 9.99 -0.98 9.99 -3 11 C-2.01 7.37 -1.02 3.74 0 0 Z " fill="#C3FAFD" transform="translate(388,548)"/>
<path d="M0 0 C1.11672285 3.35016854 0.92467164 3.92559562 -0.3125 7.0625 C-0.57675781 7.75472656 -0.84101563 8.44695312 -1.11328125 9.16015625 C-2 11 -2 11 -4 13 C-3.40895235 8.15340923 -2.02055843 4.39251833 0 0 Z " fill="#1FCCED" transform="translate(354,494)"/>
<path d="M0 0 C1.21386936 3.64160808 0.6674695 4.33165469 -0.9375 7.6875 C-1.31777344 8.49574219 -1.69804687 9.30398438 -2.08984375 10.13671875 C-2.39019531 10.75160156 -2.69054687 11.36648438 -3 12 C-3.88336837 9.5332355 -4.1312406 8.36140628 -3.22265625 5.859375 C-2.83980469 5.16328125 -2.45695312 4.4671875 -2.0625 3.75 C-1.68222656 3.04359375 -1.30195313 2.3371875 -0.91015625 1.609375 C-0.60980469 1.07828125 -0.30945313 0.5471875 0 0 Z " fill="#E7FFFF" transform="translate(438,408)"/>
<path d="M0 0 C0.33 0.99 0.66 1.98 1 3 C-2.26760563 8.63380282 -2.26760563 8.63380282 -5 10 C-3.84414715 6.08788267 -2.64465038 3.1254959 0 0 Z " fill="#D1FCFD" transform="translate(374,595)"/>
<path d="M0 0 C1.13643966 3.40931897 0.86747764 4.00335456 -0.4375 7.1875 C-0.86869141 8.26064453 -0.86869141 8.26064453 -1.30859375 9.35546875 C-1.53675781 9.89816406 -1.76492188 10.44085937 -2 11 C-3.21563174 7.05347724 -2.53534125 4.83835312 -1 1 C-0.67 0.67 -0.34 0.34 0 0 Z " fill="#E8FFFF" transform="translate(348,668)"/>
<path d="M0 0 C0.6875 1.625 0.6875 1.625 1 4 C-0.4375 7.25 -0.4375 7.25 -2 10 C-3.39195915 5.82412255 -1.82323219 3.86525224 0 0 Z " fill="#23CEEC" transform="translate(300,651)"/>
<path d="M0 0 C1.15957207 3.47871621 0.77456651 4.34219645 -0.4375 7.6875 C-0.72496094 8.49574219 -1.01242187 9.30398438 -1.30859375 10.13671875 C-1.65083984 11.05904297 -1.65083984 11.05904297 -2 12 C-2.33 12 -2.66 12 -3 12 C-3.2954439 6.97745369 -2.98514628 4.10457614 0 0 Z " fill="#23CFF0" transform="translate(444,377)"/>
</svg>
